<svg xmlns="http://www.w3.org/2000/svg" xmlns:xlink="http://www.w3.org/1999/xlink">
<svg xmlns="http://www.w3.org/2000/svg" viewBox="0 0 512 512"><!--!Font Awesome Free 6.6.0 by @fontawesome - https://fontawesome.com License - https://fontawesome.com/license/free Copyright 2024 Fonticons, Inc.--><path d="M0 416c0 17.7 14.3 32 32 32l54.7 0c12.3 28.3 40.5 48 73.3 48s61-19.7 73.3-48L480 448c17.7 0 32-14.3 32-32s-14.3-32-32-32l-246.7 0c-12.3-28.3-40.5-48-73.3-48s-61 19.7-73.3 48L32 384c-17.7 0-32 14.3-32 32zm128 0a32 32 0 1 1 64 0 32 32 0 1 1 -64 0zM320 256a32 32 0 1 1 64 0 32 32 0 1 1 -64 0zm32-80c-32.8 0-61 19.7-73.3 48L32 224c-17.7 0-32 14.3-32 32s14.3 32 32 32l246.7 0c12.3 28.3 40.5 48 73.3 48s61-19.7 73.3-48l54.7 0c17.7 0 32-14.3 32-32s-14.3-32-32-32l-54.7 0c-12.3-28.3-40.5-48-73.3-48zM192 128a32 32 0 1 1 0-64 32 32 0 1 1 0 64zm73.3-64C253 35.7 224.8 16 192 16s-61 19.7-73.3 48L32 64C14.3 64 0 78.3 0 96s14.3 32 32 32l86.7 0c12.3 28.3 40.5 48 73.3 48s61-19.7 73.3-48L480 128c17.7 0 32-14.3 32-32s-14.3-32-32-32L265.3 64z"/></svg>
<svg xmlns="http://www.w3.org/2000/svg" viewBox="0 0 512 512"><!--!Font Awesome Free 6.6.0 by @fontawesome - https://fontawesome.com License - https://fontawesome.com/license/free Copyright 2024 Fonticons, Inc.--><path d="M211 7.3C205 1 196-1.4 187.6 .8s-14.9 8.9-17.1 17.3L154.7 80.6l-62-17.5c-8.4-2.4-17.4 0-23.5 6.1s-8.5 15.1-6.1 23.5l17.5 62L18.1 170.6c-8.4 2.1-15 8.7-17.3 17.1S1 205 7.3 211l46.2 45L7.3 301C1 307-1.4 316 .8 324.4s8.9 14.9 17.3 17.1l62.5 15.8-17.5 62c-2.4 8.4 0 17.4 6.1 23.5s15.1 8.5 23.5 6.1l62-17.5 15.8 62.5c2.1 8.4 8.7 15 17.1 17.3s17.3-.2 23.4-6.4l45-46.2 45 46.2c6.1 6.2 15 8.7 23.4 6.4s14.9-8.9 17.1-17.3l15.8-62.5 62 17.5c8.4 2.4 17.4 0 23.5-6.1s8.5-15.1 6.1-23.5l-17.5-62 62.5-15.8c8.4-2.1 15-8.7 17.3-17.1s-.2-17.4-6.4-23.4l-46.2-45 46.2-45c6.2-6.1 8.7-15 6.4-23.4s-8.9-14.9-17.3-17.1l-62.5-15.8 17.5-62c2.4-8.4 0-17.4-6.1-23.5s-15.1-8.5-23.5-6.1l-62 17.5L341.4 18.1c-2.1-8.4-8.7-15-17.1-17.3S307 1 301 7.3L256 53.5 211 7.3z"/></svg>
	<defs>
		<linearGradient id="gradient1" x1="0%" y1="0%" x2="0%" y2="100%" spreadMethod="pad">
			<stop offset="0%" stop-color="rgba(0,0,0,0)" stop-opacity="1"/>
			<stop offset="100%" stop-color="rgba(0,0,0,0.15)" stop-opacity="1"/>
		</linearGradient>
	</defs>
	<rect x="0" y="0" width="100%" height="100%" style="fill:url(#gradient1);" />
</svg>